<svg xmlns="http://www.w3.org/2000/svg" xmlns:xlink="http://www.w3.org/1999/xlink" width="500" zoomAndPan="magnify" viewBox="0 0 375 374.999991" height="500" preserveAspectRatio="xMidYMid meet" version="1.0"><defs><g/><clipPath id="id1"><path d="M 198 241.714844 L 324.988281 241.714844 L 324.988281 249.214844 L 198 249.214844 Z M 198 241.714844 " clip-rule="nonzero"/></clipPath><clipPath id="id2"><path d="M 62.488281 241.714844 L 189 241.714844 L 189 249.214844 L 62.488281 249.214844 Z M 62.488281 241.714844 " clip-rule="nonzero"/></clipPath></defs><g fill="#000000" fill-opacity="1"><g transform="translate(72.194127, 232.062847)"><g><path d="M 26.046875 -33.8125 C 26.585938 -33.8125 26.859375 -33.539062 26.859375 -33 L 26.859375 -28.75 C 26.859375 -28.195312 26.585938 -27.921875 26.046875 -27.921875 L 17.6875 -27.921875 C 17.488281 -27.921875 17.390625 -27.828125 17.390625 -27.640625 L 17.390625 -0.828125 C 17.390625 -0.273438 17.117188 0 16.578125 0 L 11.40625 0 C 10.851562 0 10.578125 -0.273438 10.578125 -0.828125 L 10.578125 -27.640625 C 10.578125 -27.828125 10.484375 -27.921875 10.296875 -27.921875 L 2.171875 -27.921875 C 1.628906 -27.921875 1.359375 -28.195312 1.359375 -28.75 L 1.359375 -33 C 1.359375 -33.539062 1.628906 -33.8125 2.171875 -33.8125 Z M 26.046875 -33.8125 "/></g></g></g><g fill="#000000" fill-opacity="1"><g transform="translate(103.981868, 232.062847)"><g><path d="M 14.984375 0.53125 C 12.460938 0.53125 10.242188 0.015625 8.328125 -1.015625 C 6.410156 -2.046875 4.921875 -3.484375 3.859375 -5.328125 C 2.796875 -7.179688 2.265625 -9.316406 2.265625 -11.734375 L 2.265625 -22.078125 C 2.265625 -24.460938 2.796875 -26.570312 3.859375 -28.40625 C 4.921875 -30.238281 6.410156 -31.660156 8.328125 -32.671875 C 10.242188 -33.691406 12.460938 -34.203125 14.984375 -34.203125 C 17.523438 -34.203125 19.753906 -33.691406 21.671875 -32.671875 C 23.585938 -31.660156 25.078125 -30.238281 26.140625 -28.40625 C 27.203125 -26.570312 27.734375 -24.460938 27.734375 -22.078125 L 27.734375 -11.734375 C 27.734375 -9.316406 27.203125 -7.175781 26.140625 -5.3125 C 25.078125 -3.445312 23.585938 -2.003906 21.671875 -0.984375 C 19.753906 0.0234375 17.523438 0.53125 14.984375 0.53125 Z M 14.984375 -5.3125 C 16.753906 -5.3125 18.1875 -5.875 19.28125 -7 C 20.375 -8.132812 20.921875 -9.632812 20.921875 -11.5 L 20.921875 -22.125 C 20.921875 -23.988281 20.378906 -25.492188 19.296875 -26.640625 C 18.222656 -27.785156 16.785156 -28.359375 14.984375 -28.359375 C 13.203125 -28.359375 11.769531 -27.785156 10.6875 -26.640625 C 9.613281 -25.492188 9.078125 -23.988281 9.078125 -22.125 L 9.078125 -11.5 C 9.078125 -9.632812 9.613281 -8.132812 10.6875 -7 C 11.769531 -5.875 13.203125 -5.3125 14.984375 -5.3125 Z M 10.34375 -36.59375 C 9.34375 -36.59375 8.519531 -36.90625 7.875 -37.53125 C 7.226562 -38.15625 6.90625 -38.96875 6.90625 -39.96875 C 6.90625 -40.96875 7.226562 -41.789062 7.875 -42.4375 C 8.519531 -43.082031 9.34375 -43.40625 10.34375 -43.40625 C 11.34375 -43.40625 12.15625 -43.085938 12.78125 -42.453125 C 13.40625 -41.828125 13.71875 -41 13.71875 -39.96875 C 13.71875 -38.96875 13.40625 -38.15625 12.78125 -37.53125 C 12.15625 -36.90625 11.34375 -36.59375 10.34375 -36.59375 Z M 19.625 -36.59375 C 18.59375 -36.59375 17.757812 -36.894531 17.125 -37.5 C 16.5 -38.113281 16.1875 -38.9375 16.1875 -39.96875 C 16.1875 -41 16.5 -41.828125 17.125 -42.453125 C 17.757812 -43.085938 18.59375 -43.40625 19.625 -43.40625 C 20.613281 -43.40625 21.421875 -43.085938 22.046875 -42.453125 C 22.679688 -41.828125 23 -41 23 -39.96875 C 23 -38.96875 22.679688 -38.15625 22.046875 -37.53125 C 21.421875 -36.90625 20.613281 -36.59375 19.625 -36.59375 Z M 19.625 -36.59375 "/></g></g></g><g fill="#000000" fill-opacity="1"><g transform="translate(137.508737, 232.062847)"><g><path d="M 14.984375 0.53125 C 12.460938 0.53125 10.242188 0.015625 8.328125 -1.015625 C 6.410156 -2.046875 4.921875 -3.484375 3.859375 -5.328125 C 2.796875 -7.179688 2.265625 -9.316406 2.265625 -11.734375 L 2.265625 -22.078125 C 2.265625 -24.460938 2.796875 -26.570312 3.859375 -28.40625 C 4.921875 -30.238281 6.410156 -31.660156 8.328125 -32.671875 C 10.242188 -33.691406 12.460938 -34.203125 14.984375 -34.203125 C 17.523438 -34.203125 19.753906 -33.691406 21.671875 -32.671875 C 23.585938 -31.660156 25.078125 -30.238281 26.140625 -28.40625 C 27.203125 -26.570312 27.734375 -24.460938 27.734375 -22.078125 L 27.734375 -11.734375 C 27.734375 -9.316406 27.203125 -7.175781 26.140625 -5.3125 C 25.078125 -3.445312 23.585938 -2.003906 21.671875 -0.984375 C 19.753906 0.0234375 17.523438 0.53125 14.984375 0.53125 Z M 14.984375 -5.3125 C 16.753906 -5.3125 18.1875 -5.875 19.28125 -7 C 20.375 -8.132812 20.921875 -9.632812 20.921875 -11.5 L 20.921875 -22.125 C 20.921875 -23.988281 20.378906 -25.492188 19.296875 -26.640625 C 18.222656 -27.785156 16.785156 -28.359375 14.984375 -28.359375 C 13.203125 -28.359375 11.769531 -27.785156 10.6875 -26.640625 C 9.613281 -25.492188 9.078125 -23.988281 9.078125 -22.125 L 9.078125 -11.5 C 9.078125 -9.632812 9.613281 -8.132812 10.6875 -7 C 11.769531 -5.875 13.203125 -5.3125 14.984375 -5.3125 Z M 10.34375 -36.59375 C 9.34375 -36.59375 8.519531 -36.90625 7.875 -37.53125 C 7.226562 -38.15625 6.90625 -38.96875 6.90625 -39.96875 C 6.90625 -40.96875 7.226562 -41.789062 7.875 -42.4375 C 8.519531 -43.082031 9.34375 -43.40625 10.34375 -43.40625 C 11.34375 -43.40625 12.15625 -43.085938 12.78125 -42.453125 C 13.40625 -41.828125 13.71875 -41 13.71875 -39.96875 C 13.71875 -38.96875 13.40625 -38.15625 12.78125 -37.53125 C 12.15625 -36.90625 11.34375 -36.59375 10.34375 -36.59375 Z M 19.625 -36.59375 C 18.59375 -36.59375 17.757812 -36.894531 17.125 -37.5 C 16.5 -38.113281 16.1875 -38.9375 16.1875 -39.96875 C 16.1875 -41 16.5 -41.828125 17.125 -42.453125 C 17.757812 -43.085938 18.59375 -43.40625 19.625 -43.40625 C 20.613281 -43.40625 21.421875 -43.085938 22.046875 -42.453125 C 22.679688 -41.828125 23 -41 23 -39.96875 C 23 -38.96875 22.679688 -38.15625 22.046875 -37.53125 C 21.421875 -36.90625 20.613281 -36.59375 19.625 -36.59375 Z M 19.625 -36.59375 "/></g></g></g><g fill="#000000" fill-opacity="1"><g transform="translate(171.035611, 232.062847)"><g><path d="M 3.765625 0 C 3.222656 0 2.953125 -0.273438 2.953125 -0.828125 L 2.953125 -33 C 2.953125 -33.539062 3.222656 -33.8125 3.765625 -33.8125 L 8.9375 -33.8125 C 9.488281 -33.8125 9.765625 -33.539062 9.765625 -33 L 9.765625 -19.8125 C 9.765625 -19.675781 9.800781 -19.59375 9.875 -19.5625 C 9.957031 -19.53125 10.03125 -19.5625 10.09375 -19.65625 L 21.109375 -33.328125 C 21.335938 -33.648438 21.675781 -33.8125 22.125 -33.8125 L 27.96875 -33.8125 C 28.195312 -33.8125 28.375 -33.769531 28.5 -33.6875 C 28.632812 -33.613281 28.703125 -33.492188 28.703125 -33.328125 C 28.703125 -33.203125 28.617188 -33.023438 28.453125 -32.796875 L 17.921875 -19.375 C 17.828125 -19.28125 17.828125 -19.148438 17.921875 -18.984375 L 29.078125 -0.96875 C 29.179688 -0.832031 29.234375 -0.6875 29.234375 -0.53125 C 29.234375 -0.175781 29.003906 0 28.546875 0 L 22.703125 0 C 22.285156 0 21.960938 -0.175781 21.734375 -0.53125 L 13.28125 -14.25 C 13.25 -14.34375 13.1875 -14.390625 13.09375 -14.390625 C 13 -14.390625 12.914062 -14.34375 12.84375 -14.25 L 9.90625 -10.484375 C 9.8125 -10.359375 9.765625 -10.242188 9.765625 -10.140625 L 9.765625 -0.828125 C 9.765625 -0.273438 9.488281 0 8.9375 0 Z M 3.765625 0 "/></g></g></g><g fill="#000000" fill-opacity="1"><g transform="translate(204.804021, 232.062847)"><g><path d="M 14.984375 0.53125 C 12.460938 0.53125 10.242188 0.015625 8.328125 -1.015625 C 6.410156 -2.046875 4.921875 -3.484375 3.859375 -5.328125 C 2.796875 -7.179688 2.265625 -9.316406 2.265625 -11.734375 L 2.265625 -22.078125 C 2.265625 -24.460938 2.796875 -26.570312 3.859375 -28.40625 C 4.921875 -30.238281 6.410156 -31.660156 8.328125 -32.671875 C 10.242188 -33.691406 12.460938 -34.203125 14.984375 -34.203125 C 17.523438 -34.203125 19.753906 -33.691406 21.671875 -32.671875 C 23.585938 -31.660156 25.078125 -30.238281 26.140625 -28.40625 C 27.203125 -26.570312 27.734375 -24.460938 27.734375 -22.078125 L 27.734375 -11.734375 C 27.734375 -9.316406 27.203125 -7.175781 26.140625 -5.3125 C 25.078125 -3.445312 23.585938 -2.003906 21.671875 -0.984375 C 19.753906 0.0234375 17.523438 0.53125 14.984375 0.53125 Z M 14.984375 -5.3125 C 16.753906 -5.3125 18.1875 -5.875 19.28125 -7 C 20.375 -8.132812 20.921875 -9.632812 20.921875 -11.5 L 20.921875 -22.125 C 20.921875 -23.988281 20.378906 -25.492188 19.296875 -26.640625 C 18.222656 -27.785156 16.785156 -28.359375 14.984375 -28.359375 C 13.203125 -28.359375 11.769531 -27.785156 10.6875 -26.640625 C 9.613281 -25.492188 9.078125 -23.988281 9.078125 -22.125 L 9.078125 -11.5 C 9.078125 -9.632812 9.613281 -8.132812 10.6875 -7 C 11.769531 -5.875 13.203125 -5.3125 14.984375 -5.3125 Z M 14.984375 -5.3125 "/></g></g></g><g fill="#000000" fill-opacity="1"><g transform="translate(238.330886, 232.062847)"><g><path d="M 3.765625 0 C 3.222656 0 2.953125 -0.273438 2.953125 -0.828125 L 2.953125 -33 C 2.953125 -33.539062 3.222656 -33.8125 3.765625 -33.8125 L 15.609375 -33.8125 C 18.023438 -33.8125 20.140625 -33.382812 21.953125 -32.53125 C 23.773438 -31.6875 25.1875 -30.488281 26.1875 -28.9375 C 27.1875 -27.394531 27.6875 -25.609375 27.6875 -23.578125 L 27.6875 -10.25 C 27.6875 -8.21875 27.1875 -6.425781 26.1875 -4.875 C 25.1875 -3.332031 23.773438 -2.132812 21.953125 -1.28125 C 20.140625 -0.425781 18.023438 0 15.609375 0 Z M 9.765625 -6.140625 C 9.765625 -5.941406 9.859375 -5.84375 10.046875 -5.84375 L 15.84375 -5.84375 C 17.320312 -5.84375 18.519531 -6.34375 19.4375 -7.34375 C 20.363281 -8.34375 20.84375 -9.679688 20.875 -11.359375 L 20.875 -22.46875 C 20.875 -24.144531 20.410156 -25.476562 19.484375 -26.46875 C 18.566406 -27.46875 17.335938 -27.96875 15.796875 -27.96875 L 10.046875 -27.96875 C 9.859375 -27.96875 9.765625 -27.875 9.765625 -27.6875 Z M 9.765625 -6.140625 "/></g></g></g><g fill="#000000" fill-opacity="1"><g transform="translate(271.712815, 232.062847)"><g><path d="M 24.6875 0 C 24.238281 0 23.929688 -0.222656 23.765625 -0.671875 L 22.421875 -5.171875 C 22.390625 -5.328125 22.289062 -5.40625 22.125 -5.40625 L 10.296875 -5.40625 C 10.128906 -5.40625 10.03125 -5.328125 10 -5.171875 L 8.640625 -0.671875 C 8.484375 -0.222656 8.179688 0 7.734375 0 L 2.125 0 C 1.832031 0 1.617188 -0.0859375 1.484375 -0.265625 C 1.359375 -0.441406 1.347656 -0.660156 1.453125 -0.921875 L 11.734375 -33.140625 C 11.898438 -33.585938 12.207031 -33.8125 12.65625 -33.8125 L 19.765625 -33.8125 C 20.210938 -33.8125 20.515625 -33.585938 20.671875 -33.140625 L 30.96875 -0.921875 C 31 -0.859375 31.015625 -0.757812 31.015625 -0.625 C 31.015625 -0.4375 30.945312 -0.285156 30.8125 -0.171875 C 30.6875 -0.0546875 30.515625 0 30.296875 0 Z M 11.6875 -11.015625 C 11.65625 -10.785156 11.738281 -10.671875 11.9375 -10.671875 L 20.484375 -10.671875 C 20.679688 -10.671875 20.757812 -10.785156 20.71875 -11.015625 L 16.375 -25.75 C 16.34375 -25.875 16.285156 -25.9375 16.203125 -25.9375 C 16.128906 -25.9375 16.054688 -25.875 15.984375 -25.75 Z M 11.6875 -11.015625 "/></g></g></g><g fill="#000000" fill-opacity="1"><g transform="translate(128.594419, 170.700164)"><g><path d="M 0.53125 -20.4375 C 0.0625 -20.925781 -0.171875 -21.382812 -0.171875 -21.8125 C -0.171875 -22.238281 -0.046875 -22.554688 0.203125 -22.765625 C 0.460938 -22.984375 0.804688 -23.191406 1.234375 -23.390625 C 1.671875 -23.597656 2.128906 -23.796875 2.609375 -23.984375 C 3.097656 -24.171875 3.628906 -24.34375 4.203125 -24.5 C 4.773438 -24.65625 5.265625 -24.789062 5.671875 -24.90625 C 6.816406 -25.21875 7.546875 -25.375 7.859375 -25.375 C 8.171875 -25.375 8.328125 -25.316406 8.328125 -25.203125 C 8.328125 -25.085938 8.226562 -24.941406 8.03125 -24.765625 C 7.832031 -24.597656 7.734375 -24.5 7.734375 -24.46875 C 7.734375 -24.445312 7.78125 -24.4375 7.875 -24.4375 C 7.976562 -24.4375 8.113281 -24.460938 8.28125 -24.515625 C 13.78125 -25.660156 19.097656 -26.234375 24.234375 -26.234375 C 29.378906 -26.234375 32.9375 -25.40625 34.90625 -23.75 C 34.96875 -23.6875 35.15625 -23.523438 35.46875 -23.265625 C 36.1875 -22.578125 36.546875 -22.191406 36.546875 -22.109375 C 36.546875 -21.847656 36.242188 -21.71875 35.640625 -21.71875 C 28.679688 -21.71875 22.910156 -21.476562 18.328125 -21 C 17.867188 -21 17.640625 -20.925781 17.640625 -20.78125 C 17.640625 -20.726562 17.738281 -20.632812 17.9375 -20.5 C 18.144531 -20.375 18.25 -20.179688 18.25 -19.921875 C 18.25 -19.660156 18.0625 -19.414062 17.6875 -19.1875 L 12.234375 -14.171875 C 12.003906 -14.023438 11.890625 -13.898438 11.890625 -13.796875 C 11.890625 -13.703125 11.988281 -13.65625 12.1875 -13.65625 L 12.875 -13.734375 C 14.195312 -13.847656 15.441406 -13.90625 16.609375 -13.90625 C 20.910156 -13.90625 23.0625 -12.945312 23.0625 -11.03125 C 23.0625 -10.882812 23.035156 -10.789062 22.984375 -10.75 C 22.941406 -10.707031 22.570312 -10.664062 21.875 -10.625 C 21.175781 -10.582031 18.828125 -10.273438 14.828125 -9.703125 C 10.835938 -9.128906 8.523438 -8.742188 7.890625 -8.546875 C 7.265625 -8.347656 6.78125 -8.0625 6.4375 -7.6875 C 2.75 -2.84375 0.675781 0.160156 0.21875 1.328125 C 0.1875 1.328125 0.132812 1.554688 0.0625 2.015625 C -0.0078125 2.472656 -0.0703125 2.703125 -0.125 2.703125 C -0.382812 2.703125 -0.898438 2.453125 -1.671875 1.953125 C -2.441406 1.453125 -2.828125 1 -2.828125 0.59375 C -2.828125 0.195312 -2.773438 -0.179688 -2.671875 -0.546875 C -2.578125 -0.921875 -2.453125 -1.34375 -2.296875 -1.8125 C -2.140625 -2.289062 -1.664062 -3.207031 -0.875 -4.5625 C -0.09375 -5.925781 0.882812 -7.222656 2.0625 -8.453125 C 2.113281 -8.453125 2.140625 -8.503906 2.140625 -8.609375 C 2.140625 -8.710938 1.96875 -9.082031 1.625 -9.71875 C 1.28125 -10.363281 1.109375 -10.742188 1.109375 -10.859375 C 1.109375 -11.429688 1.304688 -11.796875 1.703125 -11.953125 C 2.109375 -12.109375 3.300781 -12.359375 5.28125 -12.703125 L 5.84375 -12.796875 L 5.875 -12.796875 C 6.101562 -12.796875 6.550781 -13.125 7.21875 -13.78125 C 11.65625 -17.726562 14.257812 -19.90625 15.03125 -20.3125 C 15.3125 -20.457031 15.453125 -20.570312 15.453125 -20.65625 C 15.453125 -20.738281 15.363281 -20.78125 15.1875 -20.78125 C 15.019531 -20.78125 14.878906 -20.765625 14.765625 -20.734375 C 9.898438 -20.046875 5.820312 -19.703125 2.53125 -19.703125 C 1.675781 -19.703125 1.007812 -19.945312 0.53125 -20.4375 Z M 0.53125 -20.4375 "/></g></g></g><g fill="#000000" fill-opacity="1"><g transform="translate(147.575653, 170.700164)"><g><path d="M 13.3125 -12.96875 C 12.5625 -12.96875 11.300781 -12.203125 9.53125 -10.671875 C 7.757812 -9.140625 6.875 -8.203125 6.875 -7.859375 C 6.875 -7.796875 6.914062 -7.765625 7 -7.765625 C 7.625 -7.765625 8.875 -8.46875 10.75 -9.875 C 12.625 -11.28125 13.5625 -12.238281 13.5625 -12.75 C 13.5625 -12.894531 13.476562 -12.96875 13.3125 -12.96875 Z M 4.171875 0.765625 C 1.960938 0.765625 0.859375 -0.578125 0.859375 -3.265625 C 0.859375 -4.953125 1.59375 -6.742188 3.0625 -8.640625 C 4.539062 -10.546875 6.28125 -12.109375 8.28125 -13.328125 C 10.289062 -14.546875 12.066406 -15.15625 13.609375 -15.15625 C 14.296875 -15.15625 14.929688 -14.882812 15.515625 -14.34375 C 16.109375 -13.800781 16.40625 -13.269531 16.40625 -12.75 C 16.40625 -11.800781 15.726562 -10.734375 14.375 -9.546875 C 13.03125 -8.359375 11.617188 -7.398438 10.140625 -6.671875 C 8.671875 -5.941406 7.703125 -5.578125 7.234375 -5.578125 C 6.765625 -5.578125 6.414062 -5.789062 6.1875 -6.21875 C 6.070312 -6.3125 5.910156 -6.359375 5.703125 -6.359375 C 5.503906 -6.359375 5.175781 -5.976562 4.71875 -5.21875 C 4.257812 -4.457031 4.03125 -3.835938 4.03125 -3.359375 C 4.03125 -2.890625 4.203125 -2.597656 4.546875 -2.484375 C 6.722656 -2.484375 9.082031 -3.117188 11.625 -4.390625 C 14.175781 -5.671875 17.703125 -7.914062 22.203125 -11.125 C 22.515625 -11.351562 22.992188 -11.695312 23.640625 -12.15625 C 24.285156 -12.613281 24.664062 -12.882812 24.78125 -12.96875 C 25.03125 -12.769531 25.15625 -12.523438 25.15625 -12.234375 C 25.15625 -11.953125 25.03125 -11.695312 24.78125 -11.46875 C 23.34375 -10.03125 21.484375 -8.425781 19.203125 -6.65625 C 16.929688 -4.882812 14.320312 -3.203125 11.375 -1.609375 C 8.425781 -0.0234375 6.023438 0.765625 4.171875 0.765625 Z M 4.171875 0.765625 "/></g></g></g><g fill="#000000" fill-opacity="1"><g transform="translate(163.207257, 170.700164)"><g><path d="M 5.75 -2.828125 C 6.695312 -2.828125 8.566406 -3.671875 11.359375 -5.359375 C 14.148438 -7.054688 16.691406 -8.75 18.984375 -10.4375 L 22.453125 -12.96875 C 22.710938 -12.769531 22.84375 -12.523438 22.84375 -12.234375 C 22.84375 -11.953125 22.695312 -11.679688 22.40625 -11.421875 C 22.125 -11.160156 21.71875 -10.785156 21.1875 -10.296875 C 20.65625 -9.816406 19.644531 -8.945312 18.15625 -7.6875 C 16.675781 -6.425781 15.289062 -5.28125 14 -4.25 C 10.625 -1.53125 8.132812 0.0703125 6.53125 0.5625 C 6.007812 0.695312 5.476562 0.765625 4.9375 0.765625 C 4.394531 0.765625 3.960938 0.722656 3.640625 0.640625 C 3.328125 0.554688 2.988281 0.367188 2.625 0.078125 C 1.875 -0.546875 1.5 -1.945312 1.5 -4.125 C 1.5 -4.726562 1.753906 -5.644531 2.265625 -6.875 C 2.785156 -8.101562 3.640625 -9.585938 4.828125 -11.328125 C 6.015625 -13.078125 7.398438 -14.820312 8.984375 -16.5625 C 10.578125 -18.3125 12.597656 -20.0625 15.046875 -21.8125 C 17.492188 -23.5625 20.109375 -24.976562 22.890625 -26.0625 C 23.316406 -26.207031 23.703125 -26.28125 24.046875 -26.28125 C 24.390625 -26.28125 24.703125 -26.128906 24.984375 -25.828125 C 25.273438 -25.523438 25.476562 -25.21875 25.59375 -24.90625 L 25.8125 -24.46875 C 25.8125 -23.8125 24.789062 -22.367188 22.75 -20.140625 C 20.664062 -17.816406 18.253906 -15.601562 15.515625 -13.5 C 12.785156 -11.394531 10.25 -9.597656 7.90625 -8.109375 C 5.988281 -6.847656 5.03125 -5.535156 5.03125 -4.171875 C 5.03125 -3.273438 5.269531 -2.828125 5.75 -2.828125 Z M 9.625 -11.71875 C 10.332031 -11.71875 12.492188 -13.476562 16.109375 -17 C 19.734375 -20.519531 21.546875 -22.484375 21.546875 -22.890625 L 21.515625 -22.96875 L 20.78125 -22.625 C 19.289062 -21.65625 17.304688 -19.992188 14.828125 -17.640625 C 12.359375 -15.296875 10.648438 -13.46875 9.703125 -12.15625 C 9.585938 -12.007812 9.53125 -11.898438 9.53125 -11.828125 C 9.53125 -11.753906 9.5625 -11.71875 9.625 -11.71875 Z M 9.625 -11.71875 "/></g></g></g><g fill="#000000" fill-opacity="1"><g transform="translate(177.335823, 170.700164)"><g><path d="M 5.75 -2.828125 C 6.695312 -2.828125 8.566406 -3.671875 11.359375 -5.359375 C 14.148438 -7.054688 16.691406 -8.75 18.984375 -10.4375 L 22.453125 -12.96875 C 22.710938 -12.769531 22.84375 -12.523438 22.84375 -12.234375 C 22.84375 -11.953125 22.695312 -11.679688 22.40625 -11.421875 C 22.125 -11.160156 21.71875 -10.785156 21.1875 -10.296875 C 20.65625 -9.816406 19.644531 -8.945312 18.15625 -7.6875 C 16.675781 -6.425781 15.289062 -5.28125 14 -4.25 C 10.625 -1.53125 8.132812 0.0703125 6.53125 0.5625 C 6.007812 0.695312 5.476562 0.765625 4.9375 0.765625 C 4.394531 0.765625 3.960938 0.722656 3.640625 0.640625 C 3.328125 0.554688 2.988281 0.367188 2.625 0.078125 C 1.875 -0.546875 1.5 -1.945312 1.5 -4.125 C 1.5 -4.726562 1.753906 -5.644531 2.265625 -6.875 C 2.785156 -8.101562 3.640625 -9.585938 4.828125 -11.328125 C 6.015625 -13.078125 7.398438 -14.820312 8.984375 -16.5625 C 10.578125 -18.3125 12.597656 -20.0625 15.046875 -21.8125 C 17.492188 -23.5625 20.109375 -24.976562 22.890625 -26.0625 C 23.316406 -26.207031 23.703125 -26.28125 24.046875 -26.28125 C 24.390625 -26.28125 24.703125 -26.128906 24.984375 -25.828125 C 25.273438 -25.523438 25.476562 -25.21875 25.59375 -24.90625 L 25.8125 -24.46875 C 25.8125 -23.8125 24.789062 -22.367188 22.75 -20.140625 C 20.664062 -17.816406 18.253906 -15.601562 15.515625 -13.5 C 12.785156 -11.394531 10.25 -9.597656 7.90625 -8.109375 C 5.988281 -6.847656 5.03125 -5.535156 5.03125 -4.171875 C 5.03125 -3.273438 5.269531 -2.828125 5.75 -2.828125 Z M 9.625 -11.71875 C 10.332031 -11.71875 12.492188 -13.476562 16.109375 -17 C 19.734375 -20.519531 21.546875 -22.484375 21.546875 -22.890625 L 21.515625 -22.96875 L 20.78125 -22.625 C 19.289062 -21.65625 17.304688 -19.992188 14.828125 -17.640625 C 12.359375 -15.296875 10.648438 -13.46875 9.703125 -12.15625 C 9.585938 -12.007812 9.53125 -11.898438 9.53125 -11.828125 C 9.53125 -11.753906 9.5625 -11.71875 9.625 -11.71875 Z M 9.625 -11.71875 "/></g></g></g><g fill="#000000" fill-opacity="1"><g transform="translate(191.464389, 170.700164)"><g><path d="M 15.078125 -21.25 C 15.359375 -21.25 15.539062 -21.191406 15.625 -21.078125 C 16.03125 -20.597656 16.234375 -20.207031 16.234375 -19.90625 C 16.234375 -19.601562 16.144531 -19.34375 15.96875 -19.125 C 15.800781 -18.914062 15.59375 -18.671875 15.34375 -18.390625 C 15.101562 -18.117188 14.617188 -17.75 13.890625 -17.28125 C 13.160156 -16.8125 12.453125 -16.578125 11.765625 -16.578125 C 11.242188 -16.660156 10.984375 -16.972656 10.984375 -17.515625 C 10.984375 -18.378906 11.5 -19.21875 12.53125 -20.03125 C 13.5625 -20.84375 14.410156 -21.25 15.078125 -21.25 Z M 4.765625 -4.34375 C 4.535156 -3.9375 4.421875 -3.578125 4.421875 -3.265625 C 4.421875 -2.953125 4.59375 -2.796875 4.9375 -2.796875 C 5.132812 -2.796875 5.476562 -2.878906 5.96875 -3.046875 C 11.320312 -5.847656 16.5625 -9.15625 21.6875 -12.96875 C 21.9375 -12.769531 22.0625 -12.523438 22.0625 -12.234375 C 22.0625 -11.953125 21.921875 -11.679688 21.640625 -11.421875 C 21.359375 -11.160156 20.953125 -10.785156 20.421875 -10.296875 C 19.890625 -9.816406 18.878906 -8.945312 17.390625 -7.6875 C 15.898438 -6.425781 14.507812 -5.28125 13.21875 -4.25 C 9.84375 -1.53125 7.351562 0.0703125 5.75 0.5625 C 5.238281 0.695312 4.679688 0.765625 4.078125 0.765625 C 1.867188 0.765625 0.765625 -0.40625 0.765625 -2.75 C 0.765625 -3.664062 1.265625 -4.972656 2.265625 -6.671875 C 3.273438 -8.378906 4.304688 -9.882812 5.359375 -11.1875 C 6.421875 -12.488281 7.125 -13.210938 7.46875 -13.359375 C 7.988281 -13.671875 8.546875 -13.828125 9.140625 -13.828125 C 9.742188 -13.828125 10.316406 -13.710938 10.859375 -13.484375 C 11.035156 -13.398438 11.125 -13.285156 11.125 -13.140625 C 11.125 -12.992188 10.988281 -12.773438 10.71875 -12.484375 C 10.445312 -12.203125 10.03125 -11.757812 9.46875 -11.15625 C 8.90625 -10.5625 8.070312 -9.523438 6.96875 -8.046875 C 5.875 -6.578125 5.140625 -5.34375 4.765625 -4.34375 Z M 4.765625 -4.34375 "/></g></g></g><g fill="#000000" fill-opacity="1"><g transform="translate(204.34758, 170.700164)"><g><path d="M 9.40625 -14.21875 C 9.632812 -14.21875 10.007812 -14.101562 10.53125 -13.875 C 11.0625 -13.644531 11.328125 -13.382812 11.328125 -13.09375 C 11.328125 -12.894531 11.257812 -12.695312 11.125 -12.5 L 7.90625 -8.03125 C 7.53125 -7.570312 7.34375 -7.3125 7.34375 -7.25 C 7.34375 -7.195312 7.359375 -7.171875 7.390625 -7.171875 L 7.59375 -7.296875 C 10.914062 -9.617188 13.648438 -11.648438 15.796875 -13.390625 C 16.203125 -13.679688 16.539062 -13.828125 16.8125 -13.828125 C 17.082031 -13.828125 17.257812 -13.796875 17.34375 -13.734375 L 18.546875 -13.390625 C 18.835938 -13.253906 18.984375 -13.070312 18.984375 -12.84375 C 18.984375 -12.613281 18.925781 -12.425781 18.8125 -12.28125 C 18.257812 -11.675781 17.632812 -10.992188 16.9375 -10.234375 C 16.238281 -9.484375 15.71875 -8.910156 15.375 -8.515625 C 15.03125 -8.128906 14.640625 -7.691406 14.203125 -7.203125 C 13.773438 -6.722656 13.46875 -6.351562 13.28125 -6.09375 C 13.101562 -5.832031 12.898438 -5.535156 12.671875 -5.203125 C 12.441406 -4.878906 12.28125 -4.601562 12.1875 -4.375 C 12.019531 -3.71875 11.9375 -3.144531 11.9375 -2.65625 C 11.9375 -2.40625 12.097656 -2.28125 12.421875 -2.28125 C 12.753906 -2.28125 13.359375 -2.476562 14.234375 -2.875 C 15.109375 -3.28125 16.148438 -3.894531 17.359375 -4.71875 C 18.578125 -5.550781 20.195312 -6.734375 22.21875 -8.265625 C 24.238281 -9.796875 26.003906 -11.09375 27.515625 -12.15625 C 27.773438 -11.945312 27.90625 -11.695312 27.90625 -11.40625 C 27.90625 -11.125 27.773438 -10.875 27.515625 -10.65625 C 26.609375 -9.757812 25.453125 -8.644531 24.046875 -7.3125 C 22.640625 -5.988281 20.5 -4.207031 17.625 -1.96875 C 14.75 0.257812 12.738281 1.375 11.59375 1.375 C 9.382812 1.375 8.28125 0.203125 8.28125 -2.140625 C 8.28125 -3.035156 8.625 -3.96875 9.3125 -4.9375 L 11.15625 -7.46875 C 11.332031 -7.726562 11.421875 -7.878906 11.421875 -7.921875 C 11.421875 -7.960938 11.332031 -7.910156 11.15625 -7.765625 C 6.175781 -3.617188 3 -1.1875 1.625 -0.46875 C 1.394531 -0.320312 1.109375 -0.25 0.765625 -0.25 C -0.171875 -0.25 -0.640625 -0.679688 -0.640625 -1.546875 C -0.640625 -1.828125 -0.566406 -2.082031 -0.421875 -2.3125 C 1.691406 -4.257812 3.175781 -5.847656 4.03125 -7.078125 C 4.71875 -7.765625 5.441406 -8.722656 6.203125 -9.953125 C 6.960938 -11.191406 7.609375 -12.210938 8.140625 -13.015625 C 8.671875 -13.816406 9.09375 -14.21875 9.40625 -14.21875 Z M 9.40625 -14.21875 "/></g></g></g><g fill="#000000" fill-opacity="1"><g transform="translate(224.101804, 170.700164)"><g><path d="M 15.078125 -21.25 C 15.359375 -21.25 15.539062 -21.191406 15.625 -21.078125 C 16.03125 -20.597656 16.234375 -20.207031 16.234375 -19.90625 C 16.234375 -19.601562 16.144531 -19.34375 15.96875 -19.125 C 15.800781 -18.914062 15.59375 -18.671875 15.34375 -18.390625 C 15.101562 -18.117188 14.617188 -17.75 13.890625 -17.28125 C 13.160156 -16.8125 12.453125 -16.578125 11.765625 -16.578125 C 11.242188 -16.660156 10.984375 -16.972656 10.984375 -17.515625 C 10.984375 -18.378906 11.5 -19.21875 12.53125 -20.03125 C 13.5625 -20.84375 14.410156 -21.25 15.078125 -21.25 Z M 4.765625 -4.34375 C 4.535156 -3.9375 4.421875 -3.578125 4.421875 -3.265625 C 4.421875 -2.953125 4.59375 -2.796875 4.9375 -2.796875 C 5.132812 -2.796875 5.476562 -2.878906 5.96875 -3.046875 C 11.320312 -5.847656 16.5625 -9.15625 21.6875 -12.96875 C 21.9375 -12.769531 22.0625 -12.523438 22.0625 -12.234375 C 22.0625 -11.953125 21.921875 -11.679688 21.640625 -11.421875 C 21.359375 -11.160156 20.953125 -10.785156 20.421875 -10.296875 C 19.890625 -9.816406 18.878906 -8.945312 17.390625 -7.6875 C 15.898438 -6.425781 14.507812 -5.28125 13.21875 -4.25 C 9.84375 -1.53125 7.351562 0.0703125 5.75 0.5625 C 5.238281 0.695312 4.679688 0.765625 4.078125 0.765625 C 1.867188 0.765625 0.765625 -0.40625 0.765625 -2.75 C 0.765625 -3.664062 1.265625 -4.972656 2.265625 -6.671875 C 3.273438 -8.378906 4.304688 -9.882812 5.359375 -11.1875 C 6.421875 -12.488281 7.125 -13.210938 7.46875 -13.359375 C 7.988281 -13.671875 8.546875 -13.828125 9.140625 -13.828125 C 9.742188 -13.828125 10.316406 -13.710938 10.859375 -13.484375 C 11.035156 -13.398438 11.125 -13.285156 11.125 -13.140625 C 11.125 -12.992188 10.988281 -12.773438 10.71875 -12.484375 C 10.445312 -12.203125 10.03125 -11.757812 9.46875 -11.15625 C 8.90625 -10.5625 8.070312 -9.523438 6.96875 -8.046875 C 5.875 -6.578125 5.140625 -5.34375 4.765625 -4.34375 Z M 4.765625 -4.34375 "/></g></g></g><g fill="#000000" fill-opacity="1"><g transform="translate(236.980574, 170.700164)"><g/></g></g><g clip-path="url(#id1)"><path fill="#000000" d="M 324.515625 245.066406 L 247.773438 245.066406 L 202.582031 241.816406 L 198.75 245.464844 L 202.582031 249.113281 L 247.773438 245.863281 L 324.566406 245.863281 C 324.777344 245.863281 324.988281 245.714844 324.988281 245.464844 C 324.988281 245.214844 324.777344 245.066406 324.515625 245.066406 Z M 324.515625 245.066406 " fill-opacity="1" fill-rule="nonzero"/></g><g clip-path="url(#id2)"><path fill="#000000" d="M 139.644531 245.066406 L 62.90625 245.066406 C 62.644531 245.066406 62.488281 245.265625 62.488281 245.464844 C 62.488281 245.664062 62.644531 245.863281 62.90625 245.863281 L 139.644531 245.863281 L 184.839844 249.113281 L 188.671875 245.464844 L 184.839844 241.816406 Z M 139.644531 245.066406 " fill-opacity="1" fill-rule="nonzero"/></g><path fill="#000000" d="M 196.964844 245.464844 C 196.964844 245.875 196.882812 246.273438 196.71875 246.652344 C 196.550781 247.03125 196.316406 247.367188 196.011719 247.65625 C 195.707031 247.949219 195.355469 248.171875 194.957031 248.328125 C 194.558594 248.484375 194.140625 248.566406 193.710938 248.566406 C 193.277344 248.566406 192.863281 248.484375 192.464844 248.328125 C 192.066406 248.171875 191.714844 247.949219 191.410156 247.65625 C 191.105469 247.367188 190.867188 247.03125 190.703125 246.652344 C 190.539062 246.273438 190.457031 245.875 190.457031 245.464844 C 190.457031 245.054688 190.539062 244.660156 190.703125 244.277344 C 190.867188 243.898438 191.105469 243.5625 191.410156 243.273438 C 191.714844 242.984375 192.066406 242.757812 192.464844 242.601562 C 192.863281 242.445312 193.277344 242.363281 193.710938 242.363281 C 194.140625 242.363281 194.558594 242.445312 194.957031 242.601562 C 195.355469 242.757812 195.707031 242.984375 196.011719 243.273438 C 196.316406 243.5625 196.550781 243.898438 196.71875 244.277344 C 196.882812 244.660156 196.964844 245.054688 196.964844 245.464844 Z M 196.964844 245.464844 " fill-opacity="1" fill-rule="nonzero"/></svg>